# xmcd
#
# Track frame offsets:
#	183
#	21045
#	37258
#	52183
#	64108
#	74855
#	89520
#	104683
#	123490
#	140508
#	155308
#	166503
#	179870
#	198880
#
# Disc length: 2788
#
# Revision: 4
# Processed by: cddbd v1.5.1PL0 Copyright (c) Steve Scherf et al.
# Submitted via: CDex 1.40Release
# Normalized: r3:DSETVAR1,TDELIM( - )
#
DISCID=d50ae20e
DTITLE=Various Artist - Star and Trucks - Folge 12
DYEAR=1900
DGENRE=Country
TTITLE0=Andre Kentucky - Die schönsten Augen Hamburgs
TTITLE1=Western Union - Nach Süden
TTITLE2=Highway Cowboys - Banjo Fieber
TTITLE3=Tom Astor - Hallo guten Morgen Deutschland
TTITLE4=Johnny Hill - Adios Amigo
TTITLE5=Tennessee - Wir sind ´ne kleine Country Band
TTITLE6=Nancy Wood - Keine Rose blüht auf dem Asphalt
TTITLE7=Sammy´s Saloon - Sie kocht den nesten Kaffee von Texas
TTITLE8=Gunter Gabriel - Ich schlaf´ nicht gern allein
TTITLE9=Andy Forstmann - My Tennessee Home
TTITLE10=Ralf Paulsen - Goodby Highways
TTITLE11=Nashville Music Company - Es geht weiter
TTITLE12=Emsland Hillibillies - Original Aschendorfer Countryband
TTITLE13=Freddy Quinn - Die schönste Frau von Texas
EXTD=ID3G: 2
EXTT0=
EXTT1=
EXTT2=
EXTT3=
EXTT4=
EXTT5=
EXTT6=
EXTT7=
EXTT8=
EXTT9=
EXTT10=
EXTT11=
EXTT12=
EXTT13=
PLAYORDER=
